<svg width="167" height="167" viewBox="0 0 167 167" fill="none" xmlns="http://www.w3.org/2000/svg">
<g clip-path="url(#clip0_120_6994)">
<path d="M83.4521 0C66.9468 0 50.8122 4.89719 37.0886 14.0723C23.365 23.2474 12.6687 36.2883 6.35245 51.5459C0.0361586 66.8035 -1.61647 83.5926 1.60355 99.79C4.82356 115.987 12.7716 130.866 24.4426 142.543C36.1136 154.221 50.9833 162.174 67.1714 165.396C83.3595 168.617 100.139 166.964 115.388 160.644C130.637 154.324 143.67 143.622 152.84 129.89C162.01 116.159 166.904 100.015 166.904 83.5C166.881 61.3616 158.081 40.1366 142.436 24.4824C126.791 8.82818 105.578 0.0233785 83.4521 0ZM40.1854 139.3C44.8293 132.033 51.2268 126.053 58.7882 121.91C66.3495 117.768 74.8315 115.597 83.4521 115.597C92.0727 115.597 100.555 117.768 108.116 121.91C115.677 126.053 122.075 132.033 126.719 139.3C114.348 148.927 99.1236 154.153 83.4521 154.153C67.7806 154.153 52.5561 148.927 40.1854 139.3ZM57.7745 77.0769C57.7745 71.9955 59.2805 67.0281 62.102 62.803C64.9235 58.578 68.9338 55.2849 73.6257 53.3403C78.3177 51.3957 83.4806 50.8869 88.4616 51.8783C93.4425 52.8696 98.0178 55.3166 101.609 58.9097C105.2 62.5028 107.646 67.0808 108.636 72.0646C109.627 77.0484 109.119 82.2143 107.175 86.9089C105.232 91.6036 101.94 95.6162 97.7178 98.4393C93.4951 101.262 88.5306 102.769 83.4521 102.769C76.642 102.769 70.1108 100.062 65.2953 95.2441C60.4799 90.4259 57.7745 83.8909 57.7745 77.0769ZM136.219 130.396C129.06 120.016 118.993 111.985 107.284 107.314C113.574 102.357 118.163 95.5624 120.414 87.8749C122.666 80.1874 122.467 71.989 119.845 64.4198C117.224 56.8506 112.31 50.2869 105.788 45.6415C99.2654 40.996 91.4582 38.4997 83.4521 38.4997C75.446 38.4997 67.6388 40.996 61.1163 45.6415C54.5939 50.2869 49.6803 56.8506 47.0589 64.4198C44.4375 71.989 44.2386 80.1874 46.4898 87.8749C48.7411 95.5624 53.3306 102.357 59.6201 107.314C47.9113 111.985 37.8442 120.016 30.6847 130.396C21.6379 120.217 15.7249 107.638 13.6577 94.1743C11.5904 80.7104 13.4571 66.9356 19.0329 54.5086C24.6087 42.0816 33.6559 31.5323 45.0851 24.131C56.5142 16.7297 69.838 12.7919 83.4521 12.7919C97.0662 12.7919 110.39 16.7297 121.819 24.131C133.248 31.5323 142.296 42.0816 147.871 54.5086C153.447 66.9356 155.314 80.7104 153.247 94.1743C151.179 107.638 145.266 120.217 136.219 130.396Z" fill="#4EADF7"/>
</g>
<defs>
<clipPath id="clip0_120_6994">
<rect width="167" height="167" fill="white"/>
</clipPath>
</defs>
</svg>
