<svg width="30" height="30" viewBox="0 0 30 30" fill="none" xmlns="http://www.w3.org/2000/svg">
<path d="M15 30C23.2842 30 30 23.2842 30 15C30 6.71572 23.2842 0 15 0C6.71572 0 0 6.71572 0 15C0 23.2842 6.71572 30 15 30Z" fill="#1756C2"/>
<path d="M20.8386 19.3385L21.5031 15.0015H17.3434V12.1876C17.3434 11.0021 17.9234 9.84404 19.7882 9.84404H21.6803V6.15258C21.6803 6.15258 19.9632 5.85938 18.3221 5.85938C14.8964 5.85938 12.6563 7.93503 12.6563 11.6961V15.0015H8.84668V19.3385H12.6563V29.8201C13.4199 29.9404 14.2025 30.0015 14.9998 30.0015C15.7972 30.0015 16.5798 29.9382 17.3434 29.8201V19.3385H20.8386Z" fill="white"/>
</svg>
