<svg width="95" height="9" viewBox="0 0 95 9" fill="none" xmlns="http://www.w3.org/2000/svg">
<g clip-path="url(#clip0_120_7346)">
<path fill-rule="evenodd" clip-rule="evenodd" d="M92.3513 2.45573C91.8927 2.0126 91.2808 1.77119 90.6476 1.78111C89.489 1.78111 88.505 2.57312 88.1542 3.63962C87.9681 4.1985 87.9681 4.8037 88.1542 5.36257H88.1558C88.5083 6.42742 89.4906 7.21944 90.6493 7.21944C91.2473 7.21944 91.7608 7.06444 92.1587 6.79065V6.78954C92.6271 6.47538 92.9469 5.98099 93.0465 5.42211H90.6476V3.68925H94.8366C94.8888 3.99019 94.9133 4.29774 94.9133 4.60363C94.9133 5.97231 94.4306 7.12948 93.5906 7.91322L93.5915 7.91391C92.8555 8.60176 91.8454 9.00025 90.6476 9.00025C88.9684 9.00025 87.4329 8.04122 86.679 6.52167C86.0491 5.25014 86.0491 3.75208 86.679 2.48055C87.4329 0.959338 88.9684 0.000303248 90.6476 0.000303248C91.7508 -0.0129247 92.8164 0.407062 93.6192 1.17097L92.3513 2.45573Z" fill="white"/>
</g>
<g clip-path="url(#clip1_120_7346)">
<path d="M72.7169 0H65.1479C64.7854 0 64.4922 0.290037 64.4922 0.648628V8.34955C64.4922 8.70814 64.7854 8.99994 65.1479 8.99994H72.7169C73.0794 8.99994 73.3744 8.70814 73.3744 8.35131V0.648628C73.3744 0.290037 73.0794 0 72.7169 0ZM67.1273 7.66928H65.8089V3.37322H67.1273V7.66928ZM66.4681 2.78787C66.0448 2.78787 65.7031 2.44159 65.7031 2.01444C65.7031 1.58729 66.0448 1.24101 66.4681 1.24101C66.8897 1.24101 67.2314 1.58729 67.2314 2.01444C67.2314 2.43983 66.8897 2.78787 66.4681 2.78787ZM72.0611 7.66928H70.7444V5.58102C70.7444 5.08356 70.7357 4.44196 70.0592 4.44196C69.3739 4.44196 69.2698 4.98512 69.2698 5.54586V7.66928H67.9548V3.37322H69.2178V3.96033H69.2351C69.4103 3.62283 69.8406 3.26599 70.4807 3.26599C71.8148 3.26599 72.0611 4.15544 72.0611 5.31207V7.66928Z" fill="white"/>
</g>
<g clip-path="url(#clip2_120_7346)">
<path d="M47.4999 0.810346C48.635 0.810346 48.7694 0.815619 49.2157 0.836713C49.6306 0.856049 49.8546 0.929877 50.0039 0.9914C50.2014 1.07226 50.3441 1.1707 50.4918 1.32714C50.6411 1.48534 50.7324 1.63475 50.8087 1.84393C50.8668 2.00214 50.9365 2.2412 50.9548 2.67889C50.9747 3.15349 50.9796 3.29588 50.9796 4.49645C50.9796 5.69879 50.9747 5.84117 50.9548 6.31402C50.9365 6.75347 50.8668 6.99077 50.8087 7.14898C50.7324 7.35815 50.6395 7.50932 50.4918 7.66577C50.3425 7.82397 50.2014 7.92065 50.0039 8.00151C49.8546 8.06303 49.6289 8.13686 49.2157 8.15619C48.7677 8.17729 48.6333 8.18256 47.4999 8.18256C46.3649 8.18256 46.2305 8.17729 45.7842 8.15619C45.3693 8.13686 45.1453 8.06303 44.996 8.00151C44.7985 7.92065 44.6558 7.82221 44.5081 7.66577C44.3588 7.50757 44.2675 7.35815 44.1912 7.14898C44.1331 6.99077 44.0634 6.75171 44.0451 6.31402C44.0252 5.83941 44.0202 5.69703 44.0202 4.49645C44.0202 3.29412 44.0252 3.15174 44.0451 2.67889C44.0634 2.23944 44.1331 2.00214 44.1912 1.84393C44.2675 1.63475 44.3604 1.48358 44.5081 1.32714C44.6574 1.16894 44.7985 1.07226 44.996 0.9914C45.1453 0.929877 45.371 0.856049 45.7842 0.836713C46.2305 0.815619 46.3649 0.810346 47.4999 0.810346ZM47.4999 0C46.3467 0 46.2023 0.0052734 45.7493 0.026367C45.298 0.0474606 44.9877 0.124804 44.7188 0.235545C44.4384 0.35156 44.2011 0.504489 43.9655 0.755854C43.7282 1.00546 43.5838 1.25683 43.4743 1.55214C43.3698 1.83866 43.2968 2.16561 43.2768 2.64373C43.2569 3.12537 43.252 3.2783 43.252 4.49997C43.252 5.72164 43.2569 5.87457 43.2768 6.35445C43.2968 6.83257 43.3698 7.16128 43.4743 7.44604C43.5838 7.74311 43.7282 7.99448 43.9655 8.24409C44.2011 8.49369 44.4384 8.64838 44.7172 8.76264C44.9877 8.87338 45.2963 8.95072 45.7476 8.97181C46.2007 8.99291 46.345 8.99818 47.4983 8.99818C48.6515 8.99818 48.7959 8.99291 49.2489 8.97181C49.7003 8.95072 50.0106 8.87338 50.2794 8.76264C50.5582 8.64838 50.7955 8.49369 51.0311 8.24409C51.2667 7.99448 51.4127 7.74311 51.5206 7.4478C51.6251 7.16128 51.6982 6.83433 51.7181 6.35621C51.738 5.87633 51.743 5.7234 51.743 4.50173C51.743 3.28006 51.738 3.12713 51.7181 2.64725C51.6982 2.16913 51.6251 1.84042 51.5206 1.55565C51.4161 1.25683 51.2717 1.00546 51.0344 0.755854C50.7988 0.506247 50.5615 0.35156 50.2827 0.237303C50.0122 0.126562 49.7036 0.0492184 49.2522 0.0281248C48.7976 0.0052734 48.6532 0 47.4999 0Z" fill="white"/>
<path d="M47.4999 2.1875C46.2952 2.1875 45.3179 3.22284 45.3179 4.49901C45.3179 5.77517 46.2952 6.81052 47.4999 6.81052C48.7046 6.81052 49.682 5.77517 49.682 4.49901C49.682 3.22284 48.7046 2.1875 47.4999 2.1875ZM47.4999 5.99841C46.7184 5.99841 46.0845 5.32693 46.0845 4.49901C46.0845 3.67108 46.7184 2.9996 47.4999 2.9996C48.2815 2.9996 48.9154 3.67108 48.9154 4.49901C48.9154 5.32693 48.2815 5.99841 47.4999 5.99841Z" fill="white"/>
<path d="M50.2781 2.09433C50.2781 2.39316 50.0491 2.63398 49.7687 2.63398C49.4866 2.63398 49.2593 2.3914 49.2593 2.09433C49.2593 1.79551 49.4883 1.55469 49.7687 1.55469C50.0491 1.55469 50.2781 1.79726 50.2781 2.09433Z" fill="white"/>
</g>
<g clip-path="url(#clip3_120_7346)">
<path d="M24.4197 8.15647C27.7707 8.15647 29.604 5.34276 29.604 2.90346C29.604 2.82436 29.6023 2.7435 29.5988 2.6644C29.9554 2.40306 30.2632 2.07936 30.5077 1.70851C30.1755 1.85824 29.8229 1.95604 29.4617 1.99854C29.842 1.76761 30.1267 1.40482 30.263 0.977436C29.9054 1.19223 29.5142 1.34375 29.1063 1.4255C28.8315 1.12961 28.4681 0.933693 28.0723 0.868044C27.6766 0.802395 27.2705 0.870668 26.9169 1.06231C26.5633 1.25395 26.2819 1.55828 26.1161 1.92826C25.9503 2.29823 25.9094 2.71324 25.9998 3.10912C25.2755 3.07229 24.5669 2.88165 23.92 2.54955C23.2731 2.21745 22.7023 1.75131 22.2446 1.18134C22.012 1.58774 21.9408 2.06863 22.0456 2.5263C22.1503 2.98396 22.4231 3.38405 22.8084 3.64525C22.5191 3.63594 22.2361 3.55701 21.9829 3.41498V3.43783C21.9826 3.86431 22.1281 4.27772 22.3947 4.60779C22.6612 4.93786 23.0323 5.16421 23.4449 5.24837C23.1769 5.32267 22.8956 5.33349 22.6228 5.28001C22.7393 5.64678 22.9658 5.96757 23.2708 6.19761C23.5759 6.42765 23.9441 6.55546 24.3243 6.5632C23.6789 7.0769 22.8816 7.35553 22.0609 7.35421C21.9154 7.35399 21.77 7.34495 21.6255 7.32714C22.4592 7.86913 23.4291 8.157 24.4197 8.15647Z" fill="white"/>
</g>
<g clip-path="url(#clip4_120_7346)">
<path d="M8.88217 4.49997C8.88217 2.0147 6.89383 0 4.44108 0C1.98834 0 0 2.0147 0 4.49997C0 6.746 1.62403 8.60769 3.74716 8.94527V5.80074H2.61955V4.49997H3.74716V3.50857C3.74716 2.38077 4.4102 1.7578 5.42463 1.7578C5.91037 1.7578 6.41875 1.84569 6.41875 1.84569V2.9531H5.85876C5.30709 2.9531 5.135 3.30001 5.135 3.65622V4.49997H6.36671L6.16981 5.80074H5.135V8.94527C7.25814 8.60769 8.88217 6.746 8.88217 4.49997Z" fill="white"/>
</g>
<defs>
<clipPath id="clip0_120_7346">
<rect width="8.88217" height="8.99994" fill="white" transform="translate(86.1177)"/>
</clipPath>
<clipPath id="clip1_120_7346">
<rect width="8.88217" height="8.99994" fill="white" transform="translate(64.4922)"/>
</clipPath>
<clipPath id="clip2_120_7346">
<rect width="8.49599" height="8.99994" fill="white" transform="translate(43.252)"/>
</clipPath>
<clipPath id="clip3_120_7346">
<rect width="8.88217" height="8.99994" fill="white" transform="translate(21.6255)"/>
</clipPath>
<clipPath id="clip4_120_7346">
<rect width="8.88217" height="8.99994" fill="white"/>
</clipPath>
</defs>
</svg>
