<svg width="100" height="100" viewBox="0 0 100 100" fill="none" xmlns="http://www.w3.org/2000/svg">
<path fill-rule="evenodd" clip-rule="evenodd" d="M38.4033 1.52821C35.4814 2.24089 35.6596 3.41679 38.7953 4.02256C45.3162 5.26971 48.2737 9.36754 58.2511 25.652C63.1328 33.5982 68.7273 38.6937 76.2102 42.0789C89.2877 47.9584 85.0829 61.855 67.3732 71.3335C60.1753 75.1819 54.4383 79.6364 47.2404 86.9412C36.978 97.3818 31.8112 98.8427 23.081 93.6403C12.2485 87.1907 11.5358 75.9305 20.3732 49.5619C20.5158 49.0274 23.8293 40.4398 23.7937 28.859C23.7224 11.9688 25.3615 6.16056 31.3836 3.23861C33.6285 2.13399 33.7354 1.84894 32.2031 1.31444C27.9984 -0.146536 23.509 3.59496 21.4422 10.2227C19.3399 16.9927 19.3395 17.1 19.2682 28.5383C19.2326 40.7961 19.1973 40.903 15.7409 50.0964C5.12219 78.2111 8.89931 93.2123 27.6781 98.0585C37.2634 100.517 40.9336 98.8071 55.8284 85.0883C58.9285 82.2376 62.0995 79.8142 66.8031 76.6785C78.4908 68.8748 79.7739 67.9483 82.0188 65.8103C93.1364 55.1203 92.8154 47.317 80.8782 40.903C70.2951 35.2017 65.9479 27.8969 56.0418 13.3941C50.0198 4.55706 43.1426 0.387939 38.4033 1.52821Z" fill="#518EF8" fill-opacity="0.09"/>
</svg>
