<svg width="17" height="12" viewBox="0 0 17 12" fill="none" xmlns="http://www.w3.org/2000/svg">
<path opacity="0.7" fill-rule="evenodd" clip-rule="evenodd" d="M6.63118 8.29637C7.16243 8.59494 7.80928 8.77564 8.49779 8.77564C10.3219 8.77564 11.8069 7.53193 11.8069 6.00306C11.8069 5.42638 11.591 4.88428 11.2348 4.4396L10.3304 5.19698C10.48 5.43273 10.5624 5.71083 10.5624 6.00306C10.5624 6.95454 9.63339 7.7331 8.49694 7.7331C8.14843 7.7331 7.81693 7.66392 7.53558 7.53899L6.63118 8.29637ZM13.9642 2.15335C15.1669 3.07095 16.1869 4.3069 16.9502 5.79413C16.9831 5.85905 17 5.92876 17 5.99918C17 6.06959 16.9831 6.1393 16.9502 6.20422C15.1746 9.66501 12.0151 11.736 8.49864 11.736H8.49014C6.88958 11.736 5.35532 11.2984 4.00296 10.4986L2.3939 11.8468C2.33671 11.8954 2.26835 11.9341 2.19287 11.9604C2.11738 11.9867 2.03631 12.0001 1.95445 12C1.87248 12.0008 1.79118 11.9876 1.71559 11.9612C1.64001 11.9349 1.57173 11.8959 1.51499 11.8468C1.41403 11.7617 1.35146 11.6503 1.33783 11.5314C1.32421 11.4125 1.36036 11.2933 1.44019 11.1939L1.46569 11.1657L13.7313 0.888462C13.7483 0.874345 13.7653 0.860228 13.7738 0.846111C13.7899 0.831994 13.8061 0.818583 13.8146 0.805171L14.594 0.151554C14.6517 0.103513 14.7203 0.0653979 14.7958 0.039392C14.8713 0.0133861 14.9522 0 15.0339 0C15.1156 0 15.1965 0.0133861 15.272 0.039392C15.3475 0.0653979 15.4161 0.103513 15.4738 0.151554C15.5329 0.199543 15.5799 0.256857 15.6119 0.32013C15.644 0.383403 15.6605 0.451359 15.6605 0.520008C15.6605 0.588656 15.644 0.656613 15.6119 0.719886C15.5799 0.783159 15.5329 0.840473 15.4738 0.888462L13.9642 2.15335ZM5.18362 6.00588C5.18362 6.18658 5.20827 6.36728 5.24142 6.53386L2.1729 9.10457C1.34329 8.29848 0.621639 7.32582 0.0495853 6.20705C0.0168562 6.14223 0 6.07264 0 6.00235C0 5.93206 0.0168562 5.86248 0.0495853 5.79766C1.8244 2.33616 4.98386 0.272254 8.49269 0.272254H8.50119C9.68694 0.272254 10.8387 0.508714 11.9012 0.9534L9.13019 3.27424C8.92249 3.24368 8.71211 3.22739 8.50119 3.22553C6.66772 3.22553 5.18277 4.46995 5.18277 6.00518L5.18362 6.00588Z" fill="black"/>
</svg>
