<svg width="71" height="70" viewBox="0 0 71 70" fill="none" xmlns="http://www.w3.org/2000/svg">
<g filter="url(#filter0_f_120_6947)">
<g style="mix-blend-mode:plus-lighter" filter="url(#filter1_d_120_6947)">
<circle cx="35.5" cy="35" r="35" fill="#4EADF7"/>
</g>
<path d="M52.4276 34.5094C52.4276 35.0349 52.2132 35.5388 51.8314 35.9103C51.4496 36.2818 50.9319 36.4906 50.392 36.4906H37.4995V49.0377C37.4995 49.5632 37.285 50.0671 36.9032 50.4386C36.5215 50.8101 36.0037 51.0189 35.4638 51.0189C34.9239 51.0189 34.4062 50.8101 34.0244 50.4386C33.6426 50.0671 33.4282 49.5632 33.4282 49.0377V36.4906H20.5357C19.9958 36.4906 19.478 36.2818 19.0962 35.9103C18.7145 35.5388 18.5 35.0349 18.5 34.5094C18.5 33.984 18.7145 33.4801 19.0962 33.1086C19.478 32.737 19.9958 32.5283 20.5357 32.5283H33.4282V19.9811C33.4282 19.4557 33.6426 18.9518 34.0244 18.5803C34.4062 18.2087 34.9239 18 35.4638 18C36.0037 18 36.5215 18.2087 36.9032 18.5803C37.285 18.9518 37.4995 19.4557 37.4995 19.9811V32.5283H50.392C50.9319 32.5283 51.4496 32.737 51.8314 33.1086C52.2132 33.4801 52.4276 33.984 52.4276 34.5094Z" fill="white" fill-opacity="0.47"/>
</g>
<defs>
<filter id="filter0_f_120_6947" x="-3.5" y="-4" width="78" height="78" filterUnits="userSpaceOnUse" color-interpolation-filters="sRGB">
<feFlood flood-opacity="0" result="BackgroundImageFix"/>
<feBlend mode="normal" in="SourceGraphic" in2="BackgroundImageFix" result="shape"/>
<feGaussianBlur stdDeviation="2" result="effect1_foregroundBlur_120_6947"/>
</filter>
<filter id="filter1_d_120_6947" x="-43.8032" y="-44.3032" width="158.606" height="158.606" filterUnits="userSpaceOnUse" color-interpolation-filters="sRGB">
<feFlood flood-opacity="0" result="BackgroundImageFix"/>
<feColorMatrix in="SourceAlpha" type="matrix" values="0 0 0 0 0 0 0 0 0 0 0 0 0 0 0 0 0 0 127 0" result="hardAlpha"/>
<feOffset/>
<feGaussianBlur stdDeviation="22.1516"/>
<feComposite in2="hardAlpha" operator="out"/>
<feColorMatrix type="matrix" values="0 0 0 0 0.243137 0 0 0 0 0.290196 0 0 0 0 0.870588 0 0 0 0.5 0"/>
<feBlend mode="normal" in2="BackgroundImageFix" result="effect1_dropShadow_120_6947"/>
<feBlend mode="normal" in="SourceGraphic" in2="effect1_dropShadow_120_6947" result="shape"/>
</filter>
</defs>
</svg>
