<svg width="50" height="49" viewBox="0 0 50 49" fill="none" xmlns="http://www.w3.org/2000/svg">
<path d="M25.0597 4.34375C21.1154 4.34375 17.2596 5.51673 13.98 7.71436C10.7004 9.91198 8.14422 13.0356 6.63478 16.6901C5.12534 20.3446 4.7304 24.3659 5.49991 28.2456C6.26941 32.1252 8.1688 35.6888 10.9579 38.4859C13.747 41.2829 17.3005 43.1877 21.169 43.9594C25.0376 44.7312 29.0475 44.3351 32.6916 42.8213C36.3357 41.3076 39.4504 38.7441 41.6417 35.4551C43.8331 32.1662 45.0027 28.2994 45.0027 24.3437C44.9972 19.0411 42.8942 13.9573 39.1554 10.2078C35.4166 6.45828 30.3472 4.34935 25.0597 4.34375ZM14.72 37.7091C15.8298 35.9685 17.3587 34.5361 19.1656 33.5439C20.9726 32.5516 22.9996 32.0315 25.0597 32.0315C27.1198 32.0315 29.1468 32.5516 30.9538 33.5439C32.7608 34.5361 34.2896 35.9685 35.3994 37.7091C32.4431 40.0149 28.8048 41.2667 25.0597 41.2667C21.3146 41.2667 17.6763 40.0149 14.72 37.7091ZM18.9234 22.8053C18.9234 21.5882 19.2833 20.3984 19.9576 19.3864C20.6318 18.3744 21.5902 17.5856 22.7115 17.1199C23.8327 16.6541 25.0665 16.5322 26.2569 16.7697C27.4472 17.0071 28.5406 17.5932 29.3988 18.4539C30.2569 19.3145 30.8414 20.411 31.0781 21.6047C31.3149 22.7985 31.1934 24.0358 30.7289 25.1603C30.2645 26.2847 29.478 27.2458 28.4689 27.922C27.4598 28.5982 26.2734 28.9591 25.0597 28.9591C23.4323 28.9591 21.8715 28.3108 20.7207 27.1567C19.5699 26.0026 18.9234 24.4374 18.9234 22.8053ZM37.6698 35.5764C35.9589 33.09 33.5531 31.1665 30.755 30.0476C32.258 28.8604 33.3548 27.2329 33.8928 25.3916C34.4308 23.5503 34.3833 21.5866 33.7568 19.7736C33.1304 17.9607 31.9561 16.3885 30.3974 15.2758C28.8387 14.1632 26.973 13.5652 25.0597 13.5652C23.1465 13.5652 21.2807 14.1632 19.722 15.2758C18.1633 16.3885 16.9891 17.9607 16.3626 19.7736C15.7362 21.5866 15.6886 23.5503 16.2266 25.3916C16.7646 27.2329 17.8614 28.8604 19.3645 30.0476C16.5663 31.1665 14.1605 33.09 12.4496 35.5764C10.2876 33.1383 8.87457 30.1254 8.38055 26.9005C7.88652 23.6756 8.33261 20.3762 9.66509 17.3997C10.9976 14.4232 13.1596 11.8964 15.8909 10.1236C18.6222 8.35086 21.8063 7.40768 25.0597 7.40768C28.3132 7.40768 31.4972 8.35086 34.2285 10.1236C36.9598 11.8964 39.1219 14.4232 40.4544 17.3997C41.7868 20.3762 42.2329 23.6756 41.7389 26.9005C41.2449 30.1254 39.8318 33.1383 37.6698 35.5764Z" fill="#4EADF7"/>
</svg>
