<svg width="25" height="25" viewBox="0 0 25 25" fill="none" xmlns="http://www.w3.org/2000/svg">
<path d="M22.1982 7.16578L17.835 2.80152C17.6899 2.65639 17.5176 2.54127 17.328 2.46272C17.1384 2.38418 16.9352 2.34375 16.73 2.34375C16.5248 2.34375 16.3216 2.38418 16.132 2.46272C15.9424 2.54127 15.7701 2.65639 15.625 2.80152L3.58302 14.8445C3.43729 14.9891 3.32176 15.1611 3.24313 15.3508C3.1645 15.5404 3.12435 15.7437 3.12501 15.949V20.3132C3.12501 20.7276 3.28963 21.1251 3.58265 21.4181C3.87568 21.7111 4.27311 21.8757 4.68751 21.8757H9.05177C9.25703 21.8764 9.46038 21.8362 9.64999 21.7576C9.8396 21.679 10.0117 21.5635 10.1563 21.4177L22.1982 9.37574C22.3434 9.23064 22.4585 9.05838 22.537 8.86879C22.6156 8.67919 22.656 8.47598 22.656 8.27076C22.656 8.06554 22.6156 7.86233 22.537 7.67273C22.4585 7.48314 22.3434 7.31088 22.1982 7.16578ZM9.05177 20.3132H4.68751V15.949L13.2813 7.35523L17.6455 11.7195L9.05177 20.3132ZM18.75 10.614L14.3857 6.25074L16.7295 3.90699L21.0938 8.27027L18.75 10.614Z" fill="#19A5FF"/>
</svg>
