<svg width="81" height="87" viewBox="0 0 81 87" fill="none" xmlns="http://www.w3.org/2000/svg">
<path fill-rule="evenodd" clip-rule="evenodd" d="M79.7621 33.4103C79.1848 30.8682 78.2323 31.0233 77.7417 33.7513C76.7315 39.4245 73.4122 41.9976 60.2218 50.6779C53.7854 54.925 49.658 59.7922 46.916 66.3023C42.1536 77.6797 30.8974 74.0216 23.2198 58.6141C20.1026 52.3519 16.4944 47.3608 10.5775 41.0986C2.12068 32.1703 0.937317 27.6751 5.1513 20.0799C10.3755 10.6556 19.4962 10.0356 40.8548 17.7242C41.2877 17.8481 48.2437 20.7309 57.6242 20.6999C71.3052 20.6379 76.0099 22.064 78.3767 27.3031C79.2714 29.2562 79.5023 29.3492 79.9352 28.0162C81.1186 24.3581 78.088 20.4522 72.7195 18.6542C67.2358 16.8251 67.149 16.8248 57.8839 16.7628C47.9551 16.7318 47.8685 16.7011 40.4218 13.694C17.649 4.45574 5.49794 7.74184 1.57258 24.0793C-0.418968 32.4186 0.966171 35.6117 12.0784 48.5701C14.3874 51.2672 16.3504 54.026 18.8904 58.1181C25.2114 68.2864 25.9618 69.4028 27.6936 71.3558C36.3525 81.0281 42.6732 80.7488 47.8685 70.3635C52.4866 61.1562 58.4035 57.3741 70.1507 48.7558C77.3087 43.5166 80.6857 37.5335 79.7621 33.4103Z" fill="#518EF8" fill-opacity="0.09"/>
</svg>
