<svg width="114" height="100" viewBox="0 0 114 100" fill="none" xmlns="http://www.w3.org/2000/svg">
<path fill-rule="evenodd" clip-rule="evenodd" d="M70.22 98.4718C73.551 97.7591 73.3479 96.5832 69.7731 95.9774C62.3393 94.7303 58.9677 90.6325 47.5936 74.348C42.0283 66.4018 35.6507 61.3063 27.1201 57.9211C12.2118 52.0416 17.0052 38.145 37.1943 28.6665C45.4 24.8181 51.9401 20.3636 60.1457 13.0588C71.8449 2.6182 77.735 1.15726 87.6874 6.35971C100.036 12.8093 100.849 24.0695 90.7743 50.4381C90.6118 50.9726 86.8343 59.5602 86.875 71.141C86.9562 88.0312 85.0876 93.8394 78.2225 96.7614C75.6633 97.866 75.5415 98.1511 77.2882 98.6856C82.0816 100.147 87.1995 96.405 89.5556 89.7773C91.9523 83.0073 91.9527 82.9 92.034 71.4617C92.0746 59.2039 92.1148 59.097 96.0551 49.9036C108.16 21.7889 103.855 6.78766 82.4468 1.94154C71.5195 -0.517166 67.3354 1.19288 50.3554 14.9117C46.8213 17.7624 43.2064 20.1858 37.8443 23.3215C24.5203 31.1252 23.0575 32.0517 20.4983 34.1897C7.82426 44.8797 8.19025 52.683 21.7986 59.097C33.8633 64.7983 38.8192 72.1031 50.1121 86.6059C56.9772 95.4429 64.8172 99.6121 70.22 98.4718Z" fill="#518EF8" fill-opacity="0.09"/>
</svg>
