<svg width="13" height="13" viewBox="0 0 13 13" fill="none" xmlns="http://www.w3.org/2000/svg">
<path fill-rule="evenodd" clip-rule="evenodd" d="M9.71035 0C10.582 0 11.4205 0.382778 12.0373 1.06961C12.6548 1.755 13 2.67944 13 3.64722V9.35278C13 11.3678 11.5245 13 9.71035 13H3.289C1.47485 13 0 11.3678 0 9.35278V3.64722C0 1.63222 1.46835 0 3.289 0H9.71035ZM10.7445 4.72333L10.7965 4.66556C10.9518 4.45611 10.9518 4.15278 10.7893 3.94333C10.699 3.83572 10.5748 3.77 10.4455 3.75556C10.309 3.74761 10.179 3.79889 10.0808 3.9L7.15 6.5C6.773 6.84739 6.23285 6.84739 5.85 6.5L2.925 3.9C2.72285 3.73389 2.44335 3.75556 2.275 3.95056C2.0995 4.14556 2.08 4.45611 2.22885 4.67278L2.314 4.76667L5.2715 7.33055C5.6355 7.64833 6.07685 7.82167 6.539 7.82167C6.99985 7.82167 7.449 7.64833 7.81235 7.33055L10.7445 4.72333Z" fill="white"/>
</svg>
