<svg width="17" height="13" viewBox="0 0 17 13" fill="none" xmlns="http://www.w3.org/2000/svg">
<path opacity="0.7" fill-rule="evenodd" clip-rule="evenodd" d="M6.63118 8.74168C7.16243 9.04025 7.80928 9.22095 8.49779 9.22095C10.3219 9.22095 11.8069 7.97724 11.8069 6.44837C11.8069 5.87169 11.591 5.3296 11.2348 4.88491L10.3304 5.64229C10.48 5.87804 10.5624 6.15615 10.5624 6.44837C10.5624 7.39986 9.63339 8.17841 8.49694 8.17841C8.14843 8.17841 7.81693 8.10924 7.53558 7.9843L6.63118 8.74168ZM13.9642 2.59866C15.1669 3.51627 16.1869 4.75221 16.9502 6.23944C16.9831 6.30436 17 6.37407 17 6.44449C17 6.51491 16.9831 6.58462 16.9502 6.64954C15.1746 10.1103 12.0151 12.1813 8.49864 12.1813H8.49014C6.88958 12.1813 5.35532 11.7437 4.00296 10.9439L2.3939 12.2921C2.33671 12.3407 2.26835 12.3794 2.19287 12.4057C2.11738 12.432 2.03631 12.4455 1.95445 12.4453C1.87248 12.4461 1.79118 12.4329 1.71559 12.4065C1.64001 12.3802 1.57173 12.3412 1.51499 12.2921C1.41403 12.207 1.35146 12.0956 1.33783 11.9767C1.32421 11.8578 1.36036 11.7386 1.44019 11.6392L1.46569 11.611L13.7313 1.33377C13.7483 1.31966 13.7653 1.30554 13.7738 1.29142C13.7899 1.27731 13.8061 1.2639 13.8146 1.25048L14.594 0.596866C14.6517 0.548825 14.7203 0.51071 14.7958 0.484705C14.8713 0.458699 14.9522 0.445312 15.0339 0.445312C15.1156 0.445312 15.1965 0.458699 15.272 0.484705C15.3475 0.51071 15.4161 0.548825 15.4738 0.596866C15.5329 0.644855 15.5799 0.702169 15.6119 0.765442C15.644 0.828715 15.6605 0.896672 15.6605 0.96532C15.6605 1.03397 15.644 1.10193 15.6119 1.1652C15.5799 1.22847 15.5329 1.28579 15.4738 1.33377L13.9642 2.59866ZM5.18362 6.45119C5.18362 6.63189 5.20827 6.81259 5.24142 6.97917L2.1729 9.54988C1.34329 8.7438 0.621639 7.77113 0.0495853 6.65236C0.0168562 6.58754 0 6.51795 0 6.44766C0 6.37738 0.0168562 6.30779 0.0495853 6.24297C1.8244 2.78148 4.98386 0.717567 8.49269 0.717567H8.50119C9.68694 0.717567 10.8387 0.954027 11.9012 1.39871L9.13019 3.71955C8.92249 3.68899 8.71211 3.6727 8.50119 3.67085C6.66772 3.67085 5.18277 4.91526 5.18277 6.45049L5.18362 6.45119Z" fill="black"/>
</svg>
