<svg width="15" height="15" viewBox="0 0 15 15" fill="none" xmlns="http://www.w3.org/2000/svg">
<path d="M12.1251 9.28439C11.6214 9.17602 11.2228 9.40994 10.8699 9.61424C10.5085 9.82469 9.82136 10.3822 9.42746 10.2395C7.41078 9.40919 5.5141 7.64406 4.69304 5.61929C4.54833 5.21699 5.10318 4.52545 5.31213 4.15979C5.51487 3.80583 5.74393 3.40353 5.63946 2.89598C5.54505 2.43988 4.32391 0.886044 3.89211 0.461139C3.60732 0.180466 3.31558 0.026093 3.01611 0.00114046C1.89015 -0.0471971 0.632635 1.45519 0.41209 1.81461C-0.140442 2.581 -0.137345 3.60079 0.421375 4.83731C1.76788 8.15864 6.86058 13.171 10.1943 14.5681C10.8096 14.8558 11.3721 15 11.8775 15C12.372 15 12.8123 14.862 13.1907 14.5884C13.4763 14.4238 15.0402 13.1039 14.9992 11.9477C14.9745 11.653 14.8205 11.3583 14.5434 11.0729C14.1216 10.6371 12.5778 9.37957 12.1251 9.28439Z" fill="white"/>
</svg>
