<svg width="19" height="19" viewBox="0 0 19 19" fill="none" xmlns="http://www.w3.org/2000/svg">
<path d="M13.1573 2.36885C13.0654 2.2767 12.9562 2.20358 12.836 2.15369C12.7157 2.1038 12.5869 2.07812 12.4567 2.07812C12.3265 2.07812 12.1976 2.1038 12.0774 2.15369C11.9572 2.20358 11.848 2.2767 11.7561 2.36885L5.17732 8.9476C5.10393 9.02084 5.0457 9.10784 5.00598 9.20361C4.96625 9.29938 4.9458 9.40204 4.9458 9.50573C4.9458 9.60941 4.96625 9.71208 5.00598 9.80785C5.0457 9.90362 5.10393 9.99061 5.17732 10.0639L11.7561 16.6426C12.144 17.0305 12.7694 17.0305 13.1573 16.6426C13.5452 16.2547 13.5452 15.6293 13.1573 15.2414L7.42565 9.50177L13.1652 3.76219C13.5452 3.38219 13.5452 2.74885 13.1573 2.36885Z" fill="#1E232C" stroke="#1E232C" stroke-width="0.2"/>
</svg>
