<svg width="100" height="99" viewBox="0 0 100 99" fill="none" xmlns="http://www.w3.org/2000/svg">
<g clip-path="url(#clip0_120_6965)">
<path d="M49.9713 -0.0078125C40.0879 -0.0078125 30.4265 2.8956 22.2088 8.33527C13.991 13.7749 7.58607 21.5066 3.80386 30.5524C0.0216519 39.5982 -0.967947 49.552 0.960207 59.1551C2.88836 68.7581 7.64767 77.579 14.6363 84.5024C21.6249 91.4258 30.5289 96.1407 40.2224 98.0508C49.9159 99.961 59.9634 98.9806 69.0945 95.2337C78.2256 91.4868 86.03 85.1416 91.5209 77.0006C97.0119 68.8596 99.9426 59.2883 99.9426 49.4971C99.9286 36.3719 94.6593 23.7881 85.2909 14.5072C75.9225 5.22618 63.2202 0.00604802 49.9713 -0.0078125ZM24.0631 82.5798C26.8439 78.2713 30.6747 74.7257 35.2025 72.2697C39.7303 69.8137 44.8093 68.5263 49.9713 68.5263C55.1334 68.5263 60.2124 69.8137 64.7401 72.2697C69.2679 74.7257 73.0987 78.2713 75.8795 82.5798C68.4719 88.287 59.3555 91.3856 49.9713 91.3856C40.5872 91.3856 31.4707 88.287 24.0631 82.5798ZM34.5955 45.6891C34.5955 42.6764 35.4973 39.7314 37.1868 37.2264C38.8763 34.7215 41.2777 32.7691 44.0873 31.6163C46.8968 30.4634 49.9884 30.1617 52.971 30.7494C55.9536 31.3372 58.6933 32.7879 60.8436 34.9182C62.994 37.0485 64.4584 39.7626 65.0517 42.7174C65.6449 45.6722 65.3405 48.7349 64.1767 51.5182C63.0129 54.3015 61.0422 56.6805 58.5136 58.3542C55.9851 60.028 53.0124 60.9213 49.9713 60.9213C45.8934 60.9213 41.9825 59.3165 39.099 56.4599C36.2155 53.6033 34.5955 49.7289 34.5955 45.6891ZM81.5686 77.3008C77.2814 71.1464 71.2532 66.3851 64.242 63.6156C68.0081 60.6769 70.7564 56.6486 72.1044 52.0909C73.4525 47.5332 73.3334 42.6725 71.7637 38.185C70.194 33.6974 67.2517 29.806 63.346 27.0518C59.4404 24.2977 54.7654 22.8177 49.9713 22.8177C45.1772 22.8177 40.5023 24.2977 36.5966 27.0518C32.6909 29.806 29.7487 33.6974 28.179 38.185C26.6093 42.6725 26.4902 47.5332 27.8382 52.0909C29.1863 56.6486 31.9345 60.6769 35.7007 63.6156C28.6894 66.3851 22.6612 71.1464 18.3741 77.3008C12.9569 71.2658 9.41611 63.8081 8.17823 55.8257C6.94036 47.8433 8.05812 39.6765 11.3969 32.3089C14.7357 24.9413 20.1532 18.6869 26.997 14.2988C33.8409 9.91077 41.8192 7.57618 49.9713 7.57618C58.1235 7.57618 66.1018 9.91077 72.9456 14.2988C79.7894 18.6869 85.2069 24.9413 88.5457 32.3089C91.8845 39.6765 93.0023 47.8433 91.7644 55.8257C90.5265 63.8081 86.9858 71.2658 81.5686 77.3008Z" fill="#19A5FF"/>
</g>
<defs>
<clipPath id="clip0_120_6965">
<rect width="100" height="99.0099" fill="white" transform="translate(0 -0.0078125)"/>
</clipPath>
</defs>
</svg>
